<svg xmlns="http://www.w3.org/2000/svg">
  <defs>
    <symbol id="icon-flag" viewBox="-5.0 -10.0 110.0 135.0">
      <path d="m50 49.836c-4.4531 0-8.6602 0.36719-12.559 1.0156v-10.004l20.23-11.973c0.99609-0.58594 1.582-1.6797 1.5312-2.832-0.054687-1.1562-0.73828-2.1836-1.7852-2.6797l-21.766-10.293c-0.97266-0.46094-2.1055-0.39062-3.0078 0.18359-0.90625 0.57031-1.4531 1.5703-1.4531 2.6406v36.32c-11.367 3.1445-18.742 9.1484-18.742 16.359 0 10.68 16.145 18.734 37.551 18.734s37.551-8.0547 37.551-18.734c0-10.68-16.145-18.734-37.551-18.734zm-12.559-29.012 11.984 5.668-11.984 7.0938zm12.559 60.23c-17.914 0-31.301-6.5898-31.301-12.484 0-3.5234 4.8125-7.2891 12.492-9.7539v4.75h-3.0156c-1.7266 0-3.125 1.3984-3.125 3.125 0 1.7266 1.3984 3.125 3.125 3.125h12.055c1.7266 0 3.125-1.3984 3.125-3.125 0-1.7266-1.3984-3.125-3.125-3.125h-2.7891v-6.3359c3.8047-0.72266 8.0352-1.1445 12.559-1.1445 17.914 0 31.301 6.5938 31.301 12.484 0 5.8945-13.387 12.484-31.301 12.484zm15.293-20.695c-4.3086 0-7.8125 3.6836-7.8125 8.2109 0 4.5273 3.5039 8.2109 7.8125 8.2109 4.3086 0 7.8125-3.6836 7.8125-8.2109 0-4.5273-3.5039-8.2109-7.8125-8.2109zm0 10.172c-0.84766 0-1.5625-0.89844-1.5625-1.9609s0.71484-1.9609 1.5625-1.9609c0.84766 0 1.5625 0.89844 1.5625 1.9609s-0.71484 1.9609-1.5625 1.9609z"/>
    </symbol>

    <symbol id="icon-golf" viewBox="-5.0 -10.0 110.0 135.0">
      <path d="m50 87.633c-20.75 0-37.633-16.883-37.633-37.633s16.883-37.633 37.633-37.633 37.633 16.883 37.633 37.633-16.883 37.633-37.633 37.633zm0-69.016c-17.305 0-31.383 14.078-31.383 31.383s14.078 31.383 31.383 31.383 31.383-14.078 31.383-31.383-14.078-31.383-31.383-31.383zm5.1289 59.449c2.2266-3.6875 1.0391-8.4961-2.6445-10.727-3.6914-2.2305-8.5-1.043-10.727 2.6445-0.89062 1.4766-0.41797 3.3984 1.0586 4.2891 1.4766 0.89453 3.3984 0.41797 4.2891-1.0586 0.44531-0.73828 1.4062-0.98047 2.1445-0.52734 0.73828 0.44531 0.97656 1.4102 0.53125 2.1445-0.89062 1.4766-0.41797 3.3984 1.0586 4.2891 0.50391 0.30469 1.0625 0.44922 1.6133 0.44922 1.0586 0 2.0898-0.53906 2.6797-1.5078zm-17.938-8.7695c3.0469-3.0469 3.0469-8.0039 0-11.047-2.9492-2.9492-8.0977-2.9492-11.051 0-1.2188 1.2227-1.2188 3.1992 0 4.4219 1.2188 1.2188 3.1992 1.2188 4.4219 0 0.39844-0.39844 0.86328-0.45703 1.1016-0.45703 0.24219 0 0.70703 0.058594 1.1055 0.45703 0.60938 0.60938 0.60938 1.6016 0 2.2109-1.2188 1.2188-1.2188 3.1992 0 4.418 0.60938 0.60938 1.4102 0.91406 2.2109 0.91406s1.5977-0.30469 2.2109-0.91406zm-1.5117-16.648c2.3789-3.5938 1.3867-8.4492-2.2031-10.828-3.5938-2.3789-8.4531-1.3906-10.828 2.2031-0.95313 1.4375-0.55859 3.3789 0.88281 4.332 1.4375 0.94922 3.375 0.55469 4.332-0.88281 0.47656-0.71875 1.4453-0.92188 2.1641-0.44141 0.71875 0.47656 0.91406 1.4453 0.44141 2.1641-0.95312 1.4375-0.55859 3.3789 0.88281 4.332 0.53125 0.35156 1.1289 0.51953 1.7227 0.51953 1.0117 0 2.0078-0.49219 2.6094-1.4023zm17.336 10.312c1.9961-3.8164 0.51562-8.5469-3.3047-10.543-1.8477-0.96484-3.9648-1.1562-5.957-0.53125-1.9922 0.625-3.6211 1.9883-4.5898 3.8359-0.80078 1.5312-0.20703 3.418 1.3203 4.2188 1.5352 0.80078 3.4219 0.20703 4.2188-1.3203 0.40234-0.76562 1.3477-1.0586 2.1094-0.66016 0.5 0.26172 0.69531 0.6875 0.76562 0.91797 0.070313 0.23047 0.15234 0.69141-0.10547 1.1914-0.80078 1.5273-0.20703 3.418 1.3203 4.2188 0.46094 0.24219 0.95703 0.35547 1.4453 0.35547 1.125 0 2.2148-0.60938 2.7734-1.6758zm16.43 9.2812c2.2148-3.6953 1.0117-8.5039-2.6836-10.719-3.7031-2.2188-8.5039-1.0078-10.719 2.6836-0.88672 1.4805-0.40625 3.3984 1.0742 4.2891 1.4805 0.88672 3.3984 0.40625 4.2891-1.0742 0.44141-0.73828 1.4023-0.97656 2.1406-0.53906 0.73828 0.44531 0.98047 1.4062 0.53906 2.1445-0.88672 1.4805-0.40625 3.3984 1.0742 4.2891 0.50391 0.30078 1.0586 0.44531 1.6055 0.44531 1.0625 0 2.0977-0.54297 2.6836-1.5195z"/>
    </symbol>

    <symbol id="icon-golf-bag" viewBox="0 0 160 200">
      <path d="M76.373,135.957h-9.092c-1.381,0-2.5,1.119-2.5,2.5s1.119,2.5,2.5,2.5h9.092c1.381,0,2.5-1.119,2.5-2.5 S77.753,135.957,76.373,135.957z"/>
      <path d="M115.872,82.834v-2.933c0-8.224-5.839-15.107-13.587-16.727v-3.856c0-1.933-1.567-3.5-3.5-3.5h-9.396v-8.176h9.396 c5.676,0,10.294-4.619,10.294-10.296c0-5.677-4.618-10.295-10.294-10.295h-6.104c-5.676,0-10.293,4.619-10.293,10.295v18.472h-6.193 V25.591h9.397c5.676,0,10.293-4.619,10.293-10.295S91.268,5,85.592,5h-6.104c-5.676,0-10.294,4.619-10.294,10.295v40.522H65.87 c0.002-0.047,0.014-0.091,0.014-0.138V42.286c0-5.677-4.617-10.295-10.293-10.295h-6.104c-5.676,0-10.293,4.619-10.293,10.295 s4.617,10.295,10.293,10.295h9.397v3.099c0,0.047,0.012,0.091,0.014,0.138H44.868c-1.933,0-3.5,1.567-3.5,3.5v13.985 c0,1.933,1.567,3.5,3.5,3.5h1.277v5.605h-2.493c-1.933,0-3.5,1.567-3.5,3.5v39.788c0,1.933,1.567,3.5,3.5,3.5h2.493v8.736 c0,9.41,7.654,17.066,17.063,17.066h30.801c1.933,0,3.5-1.567,3.5-3.5v-4.043c9.701-1.501,17.297-9.455,18.258-19.324 c2.963-1.31,5.039-4.273,5.039-7.715V90.499C120.806,87.098,118.778,84.167,115.872,82.834z M89.388,37.346 c0-1.817,1.478-3.295,3.293-3.295h6.104c1.816,0,3.294,1.479,3.294,3.295c0,1.817-1.478,3.296-3.294,3.296h-9.396V37.346z M76.195,15.296c0-1.817,1.478-3.295,3.294-3.295h6.104c1.815,0,3.293,1.479,3.293,3.295s-1.478,3.295-3.293,3.295h-9.397V15.296z M58.884,45.581h-9.397c-1.815,0-3.293-1.479-3.293-3.295s1.478-3.295,3.293-3.295h6.104c1.815,0,3.293,1.479,3.293,3.295V45.581z M110.937,120.418V90.499c0-0.791,0.644-1.435,1.435-1.435s1.435,0.644,1.435,1.435v29.919c0,0.791-0.644,1.435-1.435,1.435 S110.937,121.209,110.937,120.418z M48.368,62.818h46.917v6.985h-1.276H49.645h-1.277V62.818z M50.59,122.197h-3.438V89.409h8.358 v27.868C55.51,119.99,53.303,122.197,50.59,122.197z M90.508,148H63.208c-5.549,0-10.063-4.516-10.063-10.066v-9.019 c5.348-1.174,9.365-5.942,9.365-11.637V85.909c0-1.933-1.567-3.5-3.5-3.5h-5.865v-5.605h37.363V148z M97.508,140.318V76.803h1.276 c1.933,0,3.5-1.567,3.5-3.5V70.45c3.839,1.428,6.587,5.12,6.587,9.451v2.933c-2.906,1.333-4.935,4.263-4.935,7.664v29.919 c0,3.341,1.958,6.227,4.783,7.591C107.893,134.065,103.375,138.951,97.508,140.318z"/>
    </symbol>
  </defs>
</svg>