<svg xmlns="http://www.w3.org/2000/svg" version="1.1" viewBox="-5.0 -10.0 110.0 135.0">
 <path d="m50 49.836c-4.4531 0-8.6602 0.36719-12.559 1.0156v-10.004l20.23-11.973c0.99609-0.58594 1.582-1.6797 1.5312-2.832-0.054687-1.1562-0.73828-2.1836-1.7852-2.6797l-21.766-10.293c-0.97266-0.46094-2.1055-0.39062-3.0078 0.18359-0.90625 0.57031-1.4531 1.5703-1.4531 2.6406v36.32c-11.367 3.1445-18.742 9.1484-18.742 16.359 0 10.68 16.145 18.734 37.551 18.734s37.551-8.0547 37.551-18.734c0-10.68-16.145-18.734-37.551-18.734zm-12.559-29.012 11.984 5.668-11.984 7.0938zm12.559 60.23c-17.914 0-31.301-6.5898-31.301-12.484 0-3.5234 4.8125-7.2891 12.492-9.7539v4.75h-3.0156c-1.7266 0-3.125 1.3984-3.125 3.125 0 1.7266 1.3984 3.125 3.125 3.125h12.055c1.7266 0 3.125-1.3984 3.125-3.125 0-1.7266-1.3984-3.125-3.125-3.125h-2.7891v-6.3359c3.8047-0.72266 8.0352-1.1445 12.559-1.1445 17.914 0 31.301 6.5938 31.301 12.484 0 5.8945-13.387 12.484-31.301 12.484zm15.293-20.695c-4.3086 0-7.8125 3.6836-7.8125 8.2109 0 4.5273 3.5039 8.2109 7.8125 8.2109 4.3086 0 7.8125-3.6836 7.8125-8.2109 0-4.5273-3.5039-8.2109-7.8125-8.2109zm0 10.172c-0.84766 0-1.5625-0.89844-1.5625-1.9609s0.71484-1.9609 1.5625-1.9609c0.84766 0 1.5625 0.89844 1.5625 1.9609s-0.71484 1.9609-1.5625 1.9609z"/>
<text x="0.0" y="117.5" font-size="5.0" font-weight="bold" font-family="Arbeit Regular, Helvetica, Arial-Unicode, Arial, Sans-serif" fill="#000000">Created by Syaeful Amri</text><text x="0.0" y="122.5" font-size="5.0" font-weight="bold" font-family="Arbeit Regular, Helvetica, Arial-Unicode, Arial, Sans-serif" fill="#000000">from Noun Project</text></svg>