<svg xmlns="http://www.w3.org/2000/svg" version="1.1" viewBox="-5.0 -10.0 110.0 135.0">
 <path d="m50 87.633c-20.75 0-37.633-16.883-37.633-37.633s16.883-37.633 37.633-37.633 37.633 16.883 37.633 37.633-16.883 37.633-37.633 37.633zm0-69.016c-17.305 0-31.383 14.078-31.383 31.383s14.078 31.383 31.383 31.383 31.383-14.078 31.383-31.383-14.078-31.383-31.383-31.383zm5.1289 59.449c2.2266-3.6875 1.0391-8.4961-2.6445-10.727-3.6914-2.2305-8.5-1.043-10.727 2.6445-0.89062 1.4766-0.41797 3.3984 1.0586 4.2891 1.4766 0.89453 3.3984 0.41797 4.2891-1.0586 0.44531-0.73828 1.4062-0.98047 2.1445-0.52734 0.73828 0.44531 0.97656 1.4102 0.53125 2.1445-0.89062 1.4766-0.41797 3.3984 1.0586 4.2891 0.50391 0.30469 1.0625 0.44922 1.6133 0.44922 1.0586 0 2.0898-0.53906 2.6797-1.5078zm-17.938-8.7695c3.0469-3.0469 3.0469-8.0039 0-11.047-2.9492-2.9492-8.0977-2.9492-11.051 0-1.2188 1.2227-1.2188 3.1992 0 4.4219 1.2188 1.2188 3.1992 1.2188 4.4219 0 0.39844-0.39844 0.86328-0.45703 1.1016-0.45703 0.24219 0 0.70703 0.058594 1.1055 0.45703 0.60938 0.60938 0.60938 1.6016 0 2.2109-1.2188 1.2188-1.2188 3.1992 0 4.418 0.60938 0.60938 1.4102 0.91406 2.2109 0.91406s1.5977-0.30469 2.2109-0.91406zm-1.5117-16.648c2.3789-3.5938 1.3867-8.4492-2.2031-10.828-3.5938-2.3789-8.4531-1.3906-10.828 2.2031-0.95313 1.4375-0.55859 3.3789 0.88281 4.332 1.4375 0.94922 3.375 0.55469 4.332-0.88281 0.47656-0.71875 1.4453-0.92188 2.1641-0.44141 0.71875 0.47656 0.91406 1.4453 0.44141 2.1641-0.95312 1.4375-0.55859 3.3789 0.88281 4.332 0.53125 0.35156 1.1289 0.51953 1.7227 0.51953 1.0117 0 2.0078-0.49219 2.6094-1.4023zm17.336 10.312c1.9961-3.8164 0.51562-8.5469-3.3047-10.543-1.8477-0.96484-3.9648-1.1562-5.957-0.53125-1.9922 0.625-3.6211 1.9883-4.5898 3.8359-0.80078 1.5312-0.20703 3.418 1.3203 4.2188 1.5352 0.80078 3.4219 0.20703 4.2188-1.3203 0.40234-0.76562 1.3477-1.0586 2.1094-0.66016 0.5 0.26172 0.69531 0.6875 0.76562 0.91797 0.070313 0.23047 0.15234 0.69141-0.10547 1.1914-0.80078 1.5273-0.20703 3.418 1.3203 4.2188 0.46094 0.24219 0.95703 0.35547 1.4453 0.35547 1.125 0 2.2148-0.60938 2.7734-1.6758zm16.43 9.2812c2.2148-3.6953 1.0117-8.5039-2.6836-10.719-3.7031-2.2188-8.5039-1.0078-10.719 2.6836-0.88672 1.4805-0.40625 3.3984 1.0742 4.2891 1.4805 0.88672 3.3984 0.40625 4.2891-1.0742 0.44141-0.73828 1.4023-0.97656 2.1406-0.53906 0.73828 0.44531 0.98047 1.4062 0.53906 2.1445-0.88672 1.4805-0.40625 3.3984 1.0742 4.2891 0.50391 0.30078 1.0586 0.44531 1.6055 0.44531 1.0625 0 2.0977-0.54297 2.6836-1.5195z"/>
<text x="0.0" y="117.5" font-size="5.0" font-weight="bold" font-family="Arbeit Regular, Helvetica, Arial-Unicode, Arial, Sans-serif" fill="#000000">Created by Syaeful Amri</text><text x="0.0" y="122.5" font-size="5.0" font-weight="bold" font-family="Arbeit Regular, Helvetica, Arial-Unicode, Arial, Sans-serif" fill="#000000">from Noun Project</text></svg>