<svg xmlns="http://www.w3.org/2000/svg" xmlns:xlink="http://www.w3.org/1999/xlink" version="1.1" x="0px" y="0px" viewBox="0 0 160 200" style="enable-background:new 0 0 160 160;" xml:space="preserve"><path d="M79.859,128.607H63.794c-1.381,0-2.5,1.119-2.5,2.5s1.119,2.5,2.5,2.5h16.064c1.381,0,2.5-1.119,2.5-2.5  S81.24,128.607,79.859,128.607z"/><path d="M76.373,135.957h-9.092c-1.381,0-2.5,1.119-2.5,2.5s1.119,2.5,2.5,2.5h9.092c1.381,0,2.5-1.119,2.5-2.5  S77.753,135.957,76.373,135.957z"/><path d="M115.872,82.834v-2.933c0-8.224-5.839-15.107-13.587-16.727v-3.856c0-1.933-1.567-3.5-3.5-3.5h-9.396v-8.176h9.396  c5.676,0,10.294-4.619,10.294-10.296c0-5.677-4.618-10.295-10.294-10.295h-6.104c-5.676,0-10.293,4.619-10.293,10.295v18.472h-6.193  V25.591h9.397c5.676,0,10.293-4.619,10.293-10.295S91.268,5,85.592,5h-6.104c-5.676,0-10.294,4.619-10.294,10.295v40.522H65.87  c0.002-0.047,0.014-0.091,0.014-0.138V42.286c0-5.677-4.617-10.295-10.293-10.295h-6.104c-5.676,0-10.293,4.619-10.293,10.295  s4.617,10.295,10.293,10.295h9.397v3.099c0,0.047,0.012,0.091,0.014,0.138H44.868c-1.933,0-3.5,1.567-3.5,3.5v13.985  c0,1.933,1.567,3.5,3.5,3.5h1.277v5.605h-2.493c-1.933,0-3.5,1.567-3.5,3.5v39.788c0,1.933,1.567,3.5,3.5,3.5h2.493v8.736  c0,9.41,7.654,17.066,17.063,17.066h30.801c1.933,0,3.5-1.567,3.5-3.5v-4.043c9.701-1.501,17.297-9.455,18.258-19.324  c2.963-1.31,5.039-4.273,5.039-7.715V90.499C120.806,87.098,118.778,84.167,115.872,82.834z M89.388,37.346  c0-1.817,1.478-3.295,3.293-3.295h6.104c1.816,0,3.294,1.479,3.294,3.295c0,1.817-1.478,3.296-3.294,3.296h-9.396V37.346z   M76.195,15.296c0-1.817,1.478-3.295,3.294-3.295h6.104c1.815,0,3.293,1.479,3.293,3.295s-1.478,3.295-3.293,3.295h-9.397V15.296z   M58.884,45.581h-9.397c-1.815,0-3.293-1.479-3.293-3.295s1.478-3.295,3.293-3.295h6.104c1.815,0,3.293,1.479,3.293,3.295V45.581z   M110.937,120.418V90.499c0-0.791,0.644-1.435,1.435-1.435s1.435,0.644,1.435,1.435v29.919c0,0.791-0.644,1.435-1.435,1.435  S110.937,121.209,110.937,120.418z M48.368,62.818h46.917v6.985h-1.276H49.645h-1.277V62.818z M50.59,122.197h-3.438V89.409h8.358  v27.868C55.51,119.99,53.303,122.197,50.59,122.197z M90.508,148H63.208c-5.549,0-10.063-4.516-10.063-10.066v-9.019  c5.348-1.174,9.365-5.942,9.365-11.637V85.909c0-1.933-1.567-3.5-3.5-3.5h-5.865v-5.605h37.363V148z M97.508,140.318V76.803h1.276  c1.933,0,3.5-1.567,3.5-3.5V70.45c3.839,1.428,6.587,5.12,6.587,9.451v2.933c-2.906,1.333-4.935,4.263-4.935,7.664v29.919  c0,3.341,1.958,6.227,4.783,7.591C107.893,134.065,103.375,138.951,97.508,140.318z"/><text x="0" y="175" fill="#000000" font-size="5px" font-weight="bold" font-family="'Helvetica Neue', Helvetica, Arial-Unicode, Arial, Sans-serif">Created by Symbolon</text><text x="0" y="180" fill="#000000" font-size="5px" font-weight="bold" font-family="'Helvetica Neue', Helvetica, Arial-Unicode, Arial, Sans-serif">from the Noun Project</text></svg>